<mxfile host="app.diagrams.net" modified="2022-09-01T13:12:32.876Z" agent="5.0 (X11)" etag="gwVe9GucejNdkL49Y4r2" version="20.2.7" type="github">
  <diagram name="Page-1" id="bd83a815-5ea8-2e97-e5ec-87c9f400f2fa">
    <mxGraphModel dx="1422" dy="787" grid="1" gridSize="10" guides="1" tooltips="1" connect="1" arrows="1" fold="1" page="1" pageScale="1.5" pageWidth="1169" pageHeight="826" background="none" math="0" shadow="0">
      <root>
        <mxCell id="0" style=";html=1;" />
        <mxCell id="1" style=";html=1;" parent="0" />
        <mxCell id="1516e18e63f93b96-3" value="Simple async task scheduler" style="text;strokeColor=none;fillColor=none;html=1;fontSize=24;fontStyle=1;verticalAlign=middle;align=center;rounded=0;shadow=1;" parent="1" vertex="1">
          <mxGeometry x="300" y="70" width="780" height="40" as="geometry" />
        </mxCell>
        <mxCell id="ZIwx-WvddwB0hhgp_dLy-65" style="edgeStyle=orthogonalEdgeStyle;curved=1;orthogonalLoop=1;jettySize=auto;html=1;entryX=0;entryY=0.5;entryDx=0;entryDy=0;strokeWidth=5;exitX=1;exitY=0.5;exitDx=0;exitDy=0;fillColor=#dae8fc;strokeColor=#6c8ebf;" edge="1" parent="1" source="ZIwx-WvddwB0hhgp_dLy-28" target="ZIwx-WvddwB0hhgp_dLy-58">
          <mxGeometry relative="1" as="geometry" />
        </mxCell>
        <mxCell id="ZIwx-WvddwB0hhgp_dLy-3" value="Tasks set" style="shape=table;startSize=30;container=1;collapsible=0;childLayout=tableLayout;fillColor=#d5e8d4;labelBackgroundColor=none;strokeColor=#82b366;" vertex="1" parent="1">
          <mxGeometry x="210" y="170" width="560" height="210" as="geometry" />
        </mxCell>
        <mxCell id="ZIwx-WvddwB0hhgp_dLy-10" value="" style="shape=tableRow;horizontal=0;startSize=0;swimlaneHead=0;swimlaneBody=0;top=0;left=0;bottom=0;right=0;collapsible=0;dropTarget=0;fillColor=#fff2cc;points=[[0,0.5],[1,0.5]];portConstraint=eastwest;strokeColor=#d6b656;" vertex="1" parent="ZIwx-WvddwB0hhgp_dLy-3">
          <mxGeometry y="30" width="560" height="27" as="geometry" />
        </mxCell>
        <mxCell id="ZIwx-WvddwB0hhgp_dLy-11" value="Type" style="shape=partialRectangle;html=1;whiteSpace=wrap;connectable=0;overflow=hidden;fillColor=none;top=0;left=0;bottom=0;right=0;pointerEvents=1;" vertex="1" parent="ZIwx-WvddwB0hhgp_dLy-10">
          <mxGeometry width="137" height="27" as="geometry">
            <mxRectangle width="137" height="27" as="alternateBounds" />
          </mxGeometry>
        </mxCell>
        <mxCell id="ZIwx-WvddwB0hhgp_dLy-12" value="NextRun" style="shape=partialRectangle;html=1;whiteSpace=wrap;connectable=0;overflow=hidden;fillColor=none;top=0;left=0;bottom=0;right=0;pointerEvents=1;" vertex="1" parent="ZIwx-WvddwB0hhgp_dLy-10">
          <mxGeometry x="137" width="138" height="27" as="geometry">
            <mxRectangle width="138" height="27" as="alternateBounds" />
          </mxGeometry>
        </mxCell>
        <mxCell id="ZIwx-WvddwB0hhgp_dLy-13" value="WaitTime" style="shape=partialRectangle;html=1;whiteSpace=wrap;connectable=0;overflow=hidden;fillColor=none;top=0;left=0;bottom=0;right=0;pointerEvents=1;" vertex="1" parent="ZIwx-WvddwB0hhgp_dLy-10">
          <mxGeometry x="275" width="142" height="27" as="geometry">
            <mxRectangle width="142" height="27" as="alternateBounds" />
          </mxGeometry>
        </mxCell>
        <mxCell id="ZIwx-WvddwB0hhgp_dLy-14" value="params" style="shape=partialRectangle;html=1;whiteSpace=wrap;connectable=0;overflow=hidden;fillColor=none;top=0;left=0;bottom=0;right=0;pointerEvents=1;" vertex="1" parent="ZIwx-WvddwB0hhgp_dLy-10">
          <mxGeometry x="417" width="143" height="27" as="geometry">
            <mxRectangle width="143" height="27" as="alternateBounds" />
          </mxGeometry>
        </mxCell>
        <mxCell id="ZIwx-WvddwB0hhgp_dLy-16" value="" style="shape=tableRow;horizontal=0;startSize=0;swimlaneHead=0;swimlaneBody=0;top=0;left=0;bottom=0;right=0;collapsible=0;dropTarget=0;fillColor=none;points=[[0,0.5],[1,0.5]];portConstraint=eastwest;" vertex="1" parent="ZIwx-WvddwB0hhgp_dLy-3">
          <mxGeometry y="57" width="560" height="36" as="geometry" />
        </mxCell>
        <mxCell id="ZIwx-WvddwB0hhgp_dLy-17" value="AutoRecreate" style="shape=partialRectangle;html=1;whiteSpace=wrap;connectable=0;overflow=hidden;fillColor=none;top=0;left=0;bottom=0;right=0;pointerEvents=1;" vertex="1" parent="ZIwx-WvddwB0hhgp_dLy-16">
          <mxGeometry width="137" height="36" as="geometry">
            <mxRectangle width="137" height="36" as="alternateBounds" />
          </mxGeometry>
        </mxCell>
        <mxCell id="ZIwx-WvddwB0hhgp_dLy-18" value="ts_1" style="shape=partialRectangle;html=1;whiteSpace=wrap;connectable=0;overflow=hidden;fillColor=none;top=0;left=0;bottom=0;right=0;pointerEvents=1;" vertex="1" parent="ZIwx-WvddwB0hhgp_dLy-16">
          <mxGeometry x="137" width="138" height="36" as="geometry">
            <mxRectangle width="138" height="36" as="alternateBounds" />
          </mxGeometry>
        </mxCell>
        <mxCell id="ZIwx-WvddwB0hhgp_dLy-19" value="Wait_ts_1" style="shape=partialRectangle;html=1;whiteSpace=wrap;connectable=0;overflow=hidden;fillColor=none;top=0;left=0;bottom=0;right=0;pointerEvents=1;" vertex="1" parent="ZIwx-WvddwB0hhgp_dLy-16">
          <mxGeometry x="275" width="142" height="36" as="geometry">
            <mxRectangle width="142" height="36" as="alternateBounds" />
          </mxGeometry>
        </mxCell>
        <mxCell id="ZIwx-WvddwB0hhgp_dLy-20" value="..." style="shape=partialRectangle;html=1;whiteSpace=wrap;connectable=0;overflow=hidden;fillColor=none;top=0;left=0;bottom=0;right=0;pointerEvents=1;" vertex="1" parent="ZIwx-WvddwB0hhgp_dLy-16">
          <mxGeometry x="417" width="143" height="36" as="geometry">
            <mxRectangle width="143" height="36" as="alternateBounds" />
          </mxGeometry>
        </mxCell>
        <mxCell id="ZIwx-WvddwB0hhgp_dLy-22" value="" style="shape=tableRow;horizontal=0;startSize=0;swimlaneHead=0;swimlaneBody=0;top=0;left=0;bottom=0;right=0;collapsible=0;dropTarget=0;fillColor=none;points=[[0,0.5],[1,0.5]];portConstraint=eastwest;" vertex="1" parent="ZIwx-WvddwB0hhgp_dLy-3">
          <mxGeometry y="93" width="560" height="27" as="geometry" />
        </mxCell>
        <mxCell id="ZIwx-WvddwB0hhgp_dLy-23" value="Activate" style="shape=partialRectangle;html=1;whiteSpace=wrap;connectable=0;overflow=hidden;fillColor=none;top=0;left=0;bottom=0;right=0;pointerEvents=1;" vertex="1" parent="ZIwx-WvddwB0hhgp_dLy-22">
          <mxGeometry width="137" height="27" as="geometry">
            <mxRectangle width="137" height="27" as="alternateBounds" />
          </mxGeometry>
        </mxCell>
        <mxCell id="ZIwx-WvddwB0hhgp_dLy-24" value="ts_2" style="shape=partialRectangle;html=1;whiteSpace=wrap;connectable=0;overflow=hidden;fillColor=none;top=0;left=0;bottom=0;right=0;pointerEvents=1;" vertex="1" parent="ZIwx-WvddwB0hhgp_dLy-22">
          <mxGeometry x="137" width="138" height="27" as="geometry">
            <mxRectangle width="138" height="27" as="alternateBounds" />
          </mxGeometry>
        </mxCell>
        <mxCell id="ZIwx-WvddwB0hhgp_dLy-25" value="Wait_ts_1" style="shape=partialRectangle;html=1;whiteSpace=wrap;connectable=0;overflow=hidden;fillColor=none;top=0;left=0;bottom=0;right=0;pointerEvents=1;" vertex="1" parent="ZIwx-WvddwB0hhgp_dLy-22">
          <mxGeometry x="275" width="142" height="27" as="geometry">
            <mxRectangle width="142" height="27" as="alternateBounds" />
          </mxGeometry>
        </mxCell>
        <mxCell id="ZIwx-WvddwB0hhgp_dLy-26" value="..." style="shape=partialRectangle;html=1;whiteSpace=wrap;connectable=0;overflow=hidden;fillColor=none;top=0;left=0;bottom=0;right=0;pointerEvents=1;" vertex="1" parent="ZIwx-WvddwB0hhgp_dLy-22">
          <mxGeometry x="417" width="143" height="27" as="geometry">
            <mxRectangle width="143" height="27" as="alternateBounds" />
          </mxGeometry>
        </mxCell>
        <mxCell id="ZIwx-WvddwB0hhgp_dLy-28" value="" style="shape=tableRow;horizontal=0;startSize=0;swimlaneHead=0;swimlaneBody=0;top=0;left=0;bottom=0;right=0;collapsible=0;dropTarget=0;fillColor=none;points=[[0,0.5],[1,0.5]];portConstraint=eastwest;" vertex="1" parent="ZIwx-WvddwB0hhgp_dLy-3">
          <mxGeometry y="120" width="560" height="36" as="geometry" />
        </mxCell>
        <mxCell id="ZIwx-WvddwB0hhgp_dLy-29" value="SendMetrics" style="shape=partialRectangle;html=1;whiteSpace=wrap;connectable=0;overflow=hidden;fillColor=none;top=0;left=0;bottom=0;right=0;pointerEvents=1;" vertex="1" parent="ZIwx-WvddwB0hhgp_dLy-28">
          <mxGeometry width="137" height="36" as="geometry">
            <mxRectangle width="137" height="36" as="alternateBounds" />
          </mxGeometry>
        </mxCell>
        <mxCell id="ZIwx-WvddwB0hhgp_dLy-30" value="ts_i" style="shape=partialRectangle;html=1;whiteSpace=wrap;connectable=0;overflow=hidden;fillColor=none;top=0;left=0;bottom=0;right=0;pointerEvents=1;" vertex="1" parent="ZIwx-WvddwB0hhgp_dLy-28">
          <mxGeometry x="137" width="138" height="36" as="geometry">
            <mxRectangle width="138" height="36" as="alternateBounds" />
          </mxGeometry>
        </mxCell>
        <mxCell id="ZIwx-WvddwB0hhgp_dLy-31" value="Wait_ts_j" style="shape=partialRectangle;html=1;whiteSpace=wrap;connectable=0;overflow=hidden;fillColor=none;top=0;left=0;bottom=0;right=0;pointerEvents=1;" vertex="1" parent="ZIwx-WvddwB0hhgp_dLy-28">
          <mxGeometry x="275" width="142" height="36" as="geometry">
            <mxRectangle width="142" height="36" as="alternateBounds" />
          </mxGeometry>
        </mxCell>
        <mxCell id="ZIwx-WvddwB0hhgp_dLy-32" value="..." style="shape=partialRectangle;html=1;whiteSpace=wrap;connectable=0;overflow=hidden;fillColor=none;top=0;left=0;bottom=0;right=0;pointerEvents=1;" vertex="1" parent="ZIwx-WvddwB0hhgp_dLy-28">
          <mxGeometry x="417" width="143" height="36" as="geometry">
            <mxRectangle width="143" height="36" as="alternateBounds" />
          </mxGeometry>
        </mxCell>
        <mxCell id="ZIwx-WvddwB0hhgp_dLy-34" value="" style="shape=tableRow;horizontal=0;startSize=0;swimlaneHead=0;swimlaneBody=0;top=0;left=0;bottom=0;right=0;collapsible=0;dropTarget=0;fillColor=none;points=[[0,0.5],[1,0.5]];portConstraint=eastwest;" vertex="1" parent="ZIwx-WvddwB0hhgp_dLy-3">
          <mxGeometry y="156" width="560" height="54" as="geometry" />
        </mxCell>
        <mxCell id="ZIwx-WvddwB0hhgp_dLy-35" value="..." style="shape=partialRectangle;html=1;whiteSpace=wrap;connectable=0;overflow=hidden;fillColor=none;top=0;left=0;bottom=0;right=0;pointerEvents=1;" vertex="1" parent="ZIwx-WvddwB0hhgp_dLy-34">
          <mxGeometry width="137" height="54" as="geometry">
            <mxRectangle width="137" height="54" as="alternateBounds" />
          </mxGeometry>
        </mxCell>
        <mxCell id="ZIwx-WvddwB0hhgp_dLy-36" value="" style="shape=partialRectangle;html=1;whiteSpace=wrap;connectable=0;overflow=hidden;fillColor=none;top=0;left=0;bottom=0;right=0;pointerEvents=1;" vertex="1" parent="ZIwx-WvddwB0hhgp_dLy-34">
          <mxGeometry x="137" width="138" height="54" as="geometry">
            <mxRectangle width="138" height="54" as="alternateBounds" />
          </mxGeometry>
        </mxCell>
        <mxCell id="ZIwx-WvddwB0hhgp_dLy-37" value="" style="shape=partialRectangle;html=1;whiteSpace=wrap;connectable=0;overflow=hidden;fillColor=none;top=0;left=0;bottom=0;right=0;pointerEvents=1;" vertex="1" parent="ZIwx-WvddwB0hhgp_dLy-34">
          <mxGeometry x="275" width="142" height="54" as="geometry">
            <mxRectangle width="142" height="54" as="alternateBounds" />
          </mxGeometry>
        </mxCell>
        <mxCell id="ZIwx-WvddwB0hhgp_dLy-38" value="..." style="shape=partialRectangle;html=1;whiteSpace=wrap;connectable=0;overflow=hidden;fillColor=none;top=0;left=0;bottom=0;right=0;pointerEvents=1;" vertex="1" parent="ZIwx-WvddwB0hhgp_dLy-34">
          <mxGeometry x="417" width="143" height="54" as="geometry">
            <mxRectangle width="143" height="54" as="alternateBounds" />
          </mxGeometry>
        </mxCell>
        <mxCell id="ZIwx-WvddwB0hhgp_dLy-45" value="&lt;div&gt;Node1: workers pool&lt;br&gt;&lt;/div&gt;" style="rounded=1;whiteSpace=wrap;html=1;labelBackgroundColor=none;fillColor=default;arcSize=7;align=center;verticalAlign=top;" vertex="1" parent="1">
          <mxGeometry x="910" y="140" width="250" height="90" as="geometry" />
        </mxCell>
        <mxCell id="ZIwx-WvddwB0hhgp_dLy-47" value="" style="rounded=1;whiteSpace=wrap;html=1;labelBackgroundColor=none;fillColor=#e1d5e7;strokeColor=#9673a6;" vertex="1" parent="1">
          <mxGeometry x="920" y="180" width="40" height="40" as="geometry" />
        </mxCell>
        <mxCell id="ZIwx-WvddwB0hhgp_dLy-48" value="" style="rounded=1;whiteSpace=wrap;html=1;labelBackgroundColor=none;fillColor=#e1d5e7;strokeColor=#9673a6;" vertex="1" parent="1">
          <mxGeometry x="975" y="182" width="40" height="40" as="geometry" />
        </mxCell>
        <mxCell id="ZIwx-WvddwB0hhgp_dLy-49" value="" style="rounded=1;whiteSpace=wrap;html=1;labelBackgroundColor=none;fillColor=#e1d5e7;strokeColor=#9673a6;" vertex="1" parent="1">
          <mxGeometry x="1031" y="182" width="40" height="40" as="geometry" />
        </mxCell>
        <mxCell id="ZIwx-WvddwB0hhgp_dLy-50" value="" style="rounded=1;whiteSpace=wrap;html=1;labelBackgroundColor=none;fillColor=#e1d5e7;strokeColor=#9673a6;" vertex="1" parent="1">
          <mxGeometry x="1110" y="180" width="40" height="40" as="geometry" />
        </mxCell>
        <mxCell id="ZIwx-WvddwB0hhgp_dLy-53" value="&lt;div&gt;Node2: workers pool&lt;br&gt;&lt;/div&gt;" style="rounded=1;whiteSpace=wrap;html=1;labelBackgroundColor=none;fillColor=default;arcSize=7;align=center;verticalAlign=top;" vertex="1" parent="1">
          <mxGeometry x="910" y="250" width="250" height="90" as="geometry" />
        </mxCell>
        <mxCell id="ZIwx-WvddwB0hhgp_dLy-54" value="" style="rounded=1;whiteSpace=wrap;html=1;labelBackgroundColor=none;fillColor=#e1d5e7;strokeColor=#9673a6;" vertex="1" parent="1">
          <mxGeometry x="920" y="290" width="40" height="40" as="geometry" />
        </mxCell>
        <mxCell id="ZIwx-WvddwB0hhgp_dLy-55" value="" style="rounded=1;whiteSpace=wrap;html=1;labelBackgroundColor=none;fillColor=#e1d5e7;strokeColor=#9673a6;" vertex="1" parent="1">
          <mxGeometry x="975" y="292" width="40" height="40" as="geometry" />
        </mxCell>
        <mxCell id="ZIwx-WvddwB0hhgp_dLy-56" value="" style="rounded=1;whiteSpace=wrap;html=1;labelBackgroundColor=none;fillColor=#e1d5e7;strokeColor=#9673a6;" vertex="1" parent="1">
          <mxGeometry x="1031" y="292" width="40" height="40" as="geometry" />
        </mxCell>
        <mxCell id="ZIwx-WvddwB0hhgp_dLy-57" value="" style="rounded=1;whiteSpace=wrap;html=1;labelBackgroundColor=none;fillColor=#e1d5e7;strokeColor=#9673a6;" vertex="1" parent="1">
          <mxGeometry x="1110" y="292" width="40" height="40" as="geometry" />
        </mxCell>
        <mxCell id="ZIwx-WvddwB0hhgp_dLy-58" value="&lt;div&gt;NodeN: workers pool&lt;br&gt;&lt;/div&gt;" style="rounded=1;whiteSpace=wrap;html=1;labelBackgroundColor=none;fillColor=default;arcSize=7;align=center;verticalAlign=top;" vertex="1" parent="1">
          <mxGeometry x="910" y="360" width="250" height="90" as="geometry" />
        </mxCell>
        <mxCell id="ZIwx-WvddwB0hhgp_dLy-59" value="" style="rounded=1;whiteSpace=wrap;html=1;labelBackgroundColor=none;fillColor=#e1d5e7;strokeColor=#9673a6;" vertex="1" parent="1">
          <mxGeometry x="920" y="400" width="40" height="40" as="geometry" />
        </mxCell>
        <mxCell id="ZIwx-WvddwB0hhgp_dLy-60" value="" style="rounded=1;whiteSpace=wrap;html=1;labelBackgroundColor=none;fillColor=#e1d5e7;strokeColor=#9673a6;" vertex="1" parent="1">
          <mxGeometry x="975" y="402" width="40" height="40" as="geometry" />
        </mxCell>
        <mxCell id="ZIwx-WvddwB0hhgp_dLy-61" value="" style="rounded=1;whiteSpace=wrap;html=1;labelBackgroundColor=none;fillColor=#e1d5e7;strokeColor=#9673a6;" vertex="1" parent="1">
          <mxGeometry x="1031" y="402" width="40" height="40" as="geometry" />
        </mxCell>
        <mxCell id="ZIwx-WvddwB0hhgp_dLy-62" value="" style="rounded=1;whiteSpace=wrap;html=1;labelBackgroundColor=none;fillColor=#e1d5e7;strokeColor=#9673a6;" vertex="1" parent="1">
          <mxGeometry x="1110" y="400" width="40" height="40" as="geometry" />
        </mxCell>
        <mxCell id="ZIwx-WvddwB0hhgp_dLy-63" style="edgeStyle=orthogonalEdgeStyle;curved=1;orthogonalLoop=1;jettySize=auto;html=1;entryX=0;entryY=0.5;entryDx=0;entryDy=0;strokeWidth=5;exitX=1;exitY=0.5;exitDx=0;exitDy=0;fillColor=#dae8fc;strokeColor=#6c8ebf;" edge="1" parent="1" source="ZIwx-WvddwB0hhgp_dLy-22" target="ZIwx-WvddwB0hhgp_dLy-45">
          <mxGeometry relative="1" as="geometry">
            <mxPoint x="770" y="350" as="sourcePoint" />
          </mxGeometry>
        </mxCell>
        <mxCell id="ZIwx-WvddwB0hhgp_dLy-64" style="edgeStyle=orthogonalEdgeStyle;curved=1;orthogonalLoop=1;jettySize=auto;html=1;entryX=0;entryY=0.5;entryDx=0;entryDy=0;strokeWidth=5;exitX=0.998;exitY=0.7;exitDx=0;exitDy=0;exitPerimeter=0;fillColor=#dae8fc;strokeColor=#6c8ebf;" edge="1" parent="1" source="ZIwx-WvddwB0hhgp_dLy-22" target="ZIwx-WvddwB0hhgp_dLy-53">
          <mxGeometry relative="1" as="geometry" />
        </mxCell>
        <mxCell id="ZIwx-WvddwB0hhgp_dLy-66" value="&lt;div&gt;...&lt;/div&gt;" style="text;html=1;strokeColor=none;fillColor=none;align=center;verticalAlign=middle;whiteSpace=wrap;rounded=0;labelBackgroundColor=none;" vertex="1" parent="1">
          <mxGeometry x="1060" y="187" width="60" height="30" as="geometry" />
        </mxCell>
        <mxCell id="ZIwx-WvddwB0hhgp_dLy-67" value="&lt;div&gt;...&lt;/div&gt;" style="text;html=1;strokeColor=none;fillColor=none;align=center;verticalAlign=middle;whiteSpace=wrap;rounded=0;labelBackgroundColor=none;" vertex="1" parent="1">
          <mxGeometry x="1060" y="297" width="60" height="30" as="geometry" />
        </mxCell>
        <mxCell id="ZIwx-WvddwB0hhgp_dLy-68" value="&lt;div&gt;...&lt;/div&gt;" style="text;html=1;strokeColor=none;fillColor=none;align=center;verticalAlign=middle;whiteSpace=wrap;rounded=0;labelBackgroundColor=none;" vertex="1" parent="1">
          <mxGeometry x="1060" y="405" width="60" height="30" as="geometry" />
        </mxCell>
      </root>
    </mxGraphModel>
  </diagram>
</mxfile>
